<svg width="1096" height="403" viewBox="0 0 1096 403" fill="none" xmlns="http://www.w3.org/2000/svg">
<path d="M0.5 109.499L15.5 103.5L16 299L1.5 295L0.5 109.499Z" fill="#3F3E3E"/>
<path d="M2 307L24 310V338L1 331L2 307Z" fill="#3F3E3E"/>
<path d="M1.5 71.5L275 0V53.5L1.5 95.5V71.5Z" fill="#3F3E3E"/>
<path d="M1.5 71.5L275 0V53.5L1.5 95.5V71.5Z" fill="#3F3E3E"/>
<path d="M1.5 71.5L275 0V53.5L1.5 95.5V71.5Z" fill="#3F3E3E"/>
<path d="M552.5 70.5L275 0V53L552.5 98V70.5Z" fill="#EB1212"/>
<path d="M552.5 70.5L275 0V53L552.5 98V70.5Z" fill="#EB1212"/>
<path d="M552.5 70.5L275 0V53L552.5 98V70.5Z" fill="#EB1212"/>
<path d="M226.5 73L274.976 67.5V336L226.5 332V73Z" fill="#3F3E3E"/>
<path d="M322 74.5L275 67.5V336L323.5 329L322 74.5Z" fill="#F31919"/>
<path d="M333.5 266.5L526.5 106.5V136.5L333.5 326V266.5Z" fill="#FF0000"/>
<path d="M539 107L550 113L551 292L540 298.5L539 107Z" fill="#FF0000"/>
<path d="M296 346.5L373.5 334.5L375.5 379.5L296 400V346.5Z" fill="#959494"/>
<path d="M400.5 330.118L472 319V355.5L400.5 373.5V330.118Z" fill="#959494"/>
<path d="M493 315L549.5 306L551 336L493 350.5V315Z" fill="#959494"/>
<path d="M24.5 137.5V107.5L216.5 266L217.5 326L24.5 137.5Z" fill="#3F3E3E"/>
<path d="M24 310L79 319.5V336L24 327.001V310Z" fill="#3F3E3E"/>
<path d="M165 333.5L276 351V370L165 352V333.5Z" fill="#3F3E3E"/>
<path d="M79 319.5L165 333.5V373L79 354V319.5Z" fill="#3F3E3E"/>
<path d="M239.006 364L276.006 370V402.5C259.217 401.596 250.898 399.595 239.006 392V364Z" fill="#3F3E3E"/>
<path d="M646.225 114.5H703.225C712.725 114.5 721.308 115.583 728.975 117.75C736.641 119.917 743.141 123.083 748.475 127.25C753.975 131.417 758.141 136.5 760.975 142.5C763.975 148.333 765.475 155.083 765.475 162.75C765.475 171.917 763.725 179.833 760.225 186.5C756.725 193.167 751.975 198.75 745.975 203.25C740.141 207.583 733.225 210.833 725.225 213C717.391 215 709.058 216 700.225 216H684.225V272H646.225V114.5ZM684.225 187.25H697.975C701.641 187.25 705.225 186.833 708.725 186C712.225 185.167 715.225 183.917 717.725 182.25C720.391 180.417 722.475 178.083 723.975 175.25C725.641 172.417 726.475 168.917 726.475 164.75C726.475 157.583 723.975 152.167 718.975 148.5C714.141 144.833 707.641 143 699.475 143H684.225V187.25ZM901.035 114.5V144H858.035V272H820.035V144H778.035V114.5H901.035ZM1002.97 245.75C1010.47 245.75 1016.8 245.083 1021.97 243.75C1027.14 242.417 1031.47 240.667 1034.97 238.5L1042.47 265.75C1039.14 267.75 1033.72 269.75 1026.22 271.75C1018.89 273.75 1009.8 274.75 998.971 274.75C986.637 274.75 975.304 272.833 964.971 269C954.637 265.167 945.804 259.75 938.471 252.75C931.137 245.583 925.387 237 921.221 227C917.221 216.833 915.221 205.5 915.221 193C915.221 180.833 917.137 169.75 920.971 159.75C924.971 149.583 930.554 141 937.721 134C945.054 126.833 953.887 121.333 964.221 117.5C974.721 113.5 986.471 111.5 999.471 111.5C1010.47 111.5 1019.39 112.583 1026.22 114.75C1033.22 116.75 1038.72 118.833 1042.72 121L1034.22 148.75C1030.39 146.583 1025.8 144.667 1020.47 143C1015.3 141.333 1009.55 140.5 1003.22 140.5C996.554 140.5 990.304 141.5 984.471 143.5C978.637 145.333 973.554 148.333 969.221 152.5C964.887 156.667 961.471 162.083 958.971 168.75C956.471 175.25 955.221 183.25 955.221 192.75C955.221 201.583 956.387 209.333 958.721 216C961.221 222.667 964.637 228.25 968.971 232.75C973.304 237.083 978.304 240.333 983.971 242.5C989.804 244.667 996.137 245.75 1002.97 245.75Z" fill="black"/>
</svg>
